<?xml version="1.0" encoding="UTF-8"?>
<svg version="1.1" xmlns="http://www.w3.org/2000/svg" width="500" height="500">
<path d="M0 0 C0.73782901 7.37829007 -2.77365428 12.3558606 -7 18.0625 C-14.42891809 28.9984708 -15.49849582 43.06289645 -13.125 55.75 C-9.33109332 69.17866504 -0.97037375 79.98539742 11 87 C12.485 87.495 12.485 87.495 14 88 C14 88.66 14 89.32 14 90 C14.62648438 90.13277344 15.25296875 90.26554687 15.8984375 90.40234375 C16.71570313 90.57894531 17.53296875 90.75554687 18.375 90.9375 C19.18710938 91.11152344 19.99921875 91.28554687 20.8359375 91.46484375 C23 92 23 92 25 93 C26.64356807 93.09585131 28.29114642 93.12983511 29.9375 93.125 C30.81277344 93.12757813 31.68804687 93.13015625 32.58984375 93.1328125 C35.14459056 93.09822003 35.14459056 93.09822003 38 92 C38.99817622 89.91216712 38.99817622 89.91216712 39.625 87.375 C39.86476562 86.53710938 40.10453125 85.69921875 40.3515625 84.8359375 C42.01327107 77.56846506 42.43574756 70.16462971 43 62.75 C43.32813901 58.49957433 43.66109262 54.24958079 44 50 C44.0825 48.93974609 44.165 47.87949219 44.25 46.78710938 C44.3325 45.79001953 44.415 44.79292969 44.5 43.765625 C44.5721875 42.87133789 44.644375 41.97705078 44.71875 41.05566406 C45 39 45 39 46 38 C47.61580008 37.89617411 49.23610624 37.86147757 50.85522461 37.85473633 C51.8897728 37.84835648 52.92432098 37.84197662 53.99021912 37.83540344 C55.11622025 37.83429062 56.24222137 37.8331778 57.40234375 37.83203125 C58.55037979 37.82870285 59.69841583 37.82537445 60.88124084 37.82194519 C63.31494749 37.81687099 65.74866112 37.81453702 68.18237305 37.81469727 C71.91792192 37.81251146 75.65317535 37.79436254 79.38867188 37.77539062 C81.74739482 37.77245675 84.10611917 37.77047192 86.46484375 37.76953125 C87.58882065 37.76234573 88.71279755 37.75516022 89.87083435 37.74775696 C90.9085347 37.75083359 91.94623505 37.75391022 93.01538086 37.75708008 C93.93169785 37.75565506 94.84801483 37.75423004 95.792099 37.75276184 C98 38 98 38 100 40 C102.71721058 48.82267452 102.94276307 58.51983705 103.76757812 67.65625 C104.55212281 79.38387853 104.55212281 79.38387853 109.44775391 89.73583984 C112.42447597 92.16010326 115.86124601 91.63647256 119.5390625 91.54296875 C130.7159189 89.78948902 142.03661546 81.99884024 149.25 73.4375 C155.26721905 64.88936152 159.15119386 52.48865519 158 42 C155.37994482 29.2414704 150.61879646 19.11100968 143.35546875 8.34765625 C142 6 142 6 142 3 C158.72457235 3.06584477 174.41430716 14.32760456 185.9765625 25.8203125 C195 35.22525783 195 35.22525783 195 38 C195.66 38 196.32 38 197 38 C199.83753921 41.12129313 201.85031031 44.47936073 203.91601562 48.13793945 C205.59628197 51.02428887 207.46410561 53.78170063 209.3125 56.5625 C221.87353794 75.86348082 233.2692876 100.70020932 233.3359375 124.1015625 C233.3425943 124.94109467 233.3492511 125.78062683 233.35610962 126.64559937 C233.36616674 128.41198563 233.37092881 130.17840936 233.37060547 131.94482422 C233.37495572 134.59799539 233.41128534 137.24946821 233.44921875 139.90234375 C233.53110816 152.19983495 232.92967945 164.38110301 226 175 C225.34 174.67 224.68 174.34 224 174 C223.62109375 172.19335938 223.62109375 172.19335938 223.4375 169.84375 C223.32535156 168.55597656 223.32535156 168.55597656 223.2109375 167.2421875 C223.14132812 166.33726562 223.07171875 165.43234375 223 164.5 C222.1420049 153.72739481 221.31812236 144.45610789 214 136 C210.19575317 133.2708664 206.85704617 132.45510446 202.1484375 132.64453125 C195.83995583 133.68829822 190.80245203 136.92519222 186 141 C185.34 141 184.68 141 184 141 C184 141.66 184 142.32 184 143 C183.34 143 182.68 143 182 143 C182 143.66 182 144.32 182 145 C180.28515625 146.65625 180.28515625 146.65625 178.0625 148.5 C175.07954821 150.88926999 175.07954821 150.88926999 173 154 C172.34 154 171.68 154 171 154 C170.34 155.98 169.68 157.96 169 160 C168.34 160 167.68 160 167 160 C167 160.66 167 161.32 167 162 C166.34 162 165.68 162 165 162 C164.80921875 162.67160156 164.6184375 163.34320313 164.421875 164.03515625 C162.41811154 168.21333335 159.44724525 171.12465187 156.25 174.4375 C155.6415625 175.08009766 155.033125 175.72269531 154.40625 176.38476562 C152.61620496 178.26852029 150.8100325 180.13546653 149 182 C148.43216797 182.59699707 147.86433594 183.19399414 147.27929688 183.80908203 C145.89195761 185.24488545 144.45046455 186.62799625 143 188 C142.34 188 141.68 188 141 188 C141 188.66 141 189.32 141 190 C139.68 190 138.36 190 137 190 C136.84144531 189.20335937 136.68289063 188.40671875 136.51953125 187.5859375 C134.73540493 179.48344119 133.16440314 175.00224412 126.3125 170.0625 C121.65324326 168.56802142 117.71537603 168.72371508 113 170 C109.94494105 171.76418897 107.60424789 173.79150423 106 177 C105.34 177 104.68 177 104 177 C103.71922607 177.73234863 103.43845215 178.46469727 103.14916992 179.21923828 C102.10239917 181.75221445 100.91540258 184.08410187 99.61328125 186.4921875 C96.59236168 192.48093101 94.9087892 198.66432607 93.1875 205.125 C90.68818456 214.19334951 88.04616173 223.16248831 85 232.0625 C81.56407471 242.11279463 78.48793852 252.24610678 75.52539062 262.44555664 C75.20892578 263.53344482 74.89246094 264.62133301 74.56640625 265.7421875 C74.28740479 266.7101123 74.00840332 267.67803711 73.72094727 268.67529297 C73 271 73 271 72 273 C71.01 272.67 70.02 272.34 69 272 C67.85253906 269.25390625 67.85253906 269.25390625 66.765625 265.5625 C66.46769295 264.56804367 66.46769295 264.56804367 66.16374207 263.55349731 C65.51381651 261.37235581 64.88189324 259.18642706 64.25 257 C63.80181331 255.48393087 63.35266835 253.96814472 62.90258789 252.45263672 C60.02416893 242.71679073 57.30675472 232.93869891 54.62084961 223.14819336 C52.41092709 215.20946669 49.91646712 207.38026015 47.3125 199.5625 C46.94374756 198.45471191 46.57499512 197.34692383 46.19506836 196.20556641 C41.51058273 180.21260513 41.51058273 180.21260513 31 168 C25.42816945 167.35809379 25.42816945 167.35809379 20.625 169.6875 C17.03868758 174.79109844 16.30817502 180.28019005 15.375 186.3125 C15.2409375 187.14845703 15.106875 187.98441406 14.96875 188.84570312 C14.64065239 190.89631318 14.31961819 192.94805121 14 195 C7.77274933 193.34608232 2.46037442 191.44240996 -3 188 C-3 187.34 -3 186.68 -3 186 C-3.69480469 185.7628125 -4.38960938 185.525625 -5.10546875 185.28125 C-8.52198185 183.7689473 -11.35756671 181.74761633 -14.3125 179.5 C-14.86228516 179.09652344 -15.41207031 178.69304687 -15.97851562 178.27734375 C-17.36007451 177.23731309 -18.68556298 176.12366546 -20 175 C-20 174.34 -20 173.68 -20 173 C-20.66 173 -21.32 173 -22 173 C-22 172.34 -22 171.68 -22 171 C-22.85271484 170.64615234 -22.85271484 170.64615234 -23.72265625 170.28515625 C-30.60917524 166.39893884 -35.42778444 158.87412851 -38.9375 151.9765625 C-40.32343598 149.39831396 -42.15164255 147.25910355 -44 145 C-44 144.34 -44 143.68 -44 143 C-44.66 143 -45.32 143 -46 143 C-47.26171875 141.57421875 -47.26171875 141.57421875 -48.6875 139.6875 C-52.37397176 135.30981478 -55.82460336 133.38028702 -61.609375 132.6875 C-68.25229426 132.39389031 -72.29391007 133.68009313 -78 137 C-78.66 137 -79.32 137 -80 137 C-80.28746094 137.5775 -80.57492188 138.155 -80.87109375 138.75 C-81.58402315 140.17092503 -82.30441488 141.58815251 -83.03515625 143 C-83.54369141 143.99 -83.54369141 143.99 -84.0625 145 C-84.57490234 145.99 -84.57490234 145.99 -85.09765625 147 C-86.7670747 150.70018288 -87.15217393 154.16770228 -87.31640625 158.203125 C-87.35830078 159.1828125 -87.40019531 160.1625 -87.44335938 161.171875 C-87.48267578 162.18765625 -87.52199219 163.2034375 -87.5625 164.25 C-87.60568359 165.28125 -87.64886719 166.3125 -87.69335938 167.375 C-87.79925682 169.9165387 -87.90133443 172.45817196 -88 175 C-88.66 175.33 -89.32 175.66 -90 176 C-90.6102043 174.54418264 -91.21271846 173.08514232 -91.8125 171.625 C-92.31716797 170.40683594 -92.31716797 170.40683594 -92.83203125 169.1640625 C-93.21746094 168.11992187 -93.60289063 167.07578125 -94 166 C-94.26095459 165.3694873 -94.52190918 164.73897461 -94.79077148 164.08935547 C-97.71729828 156.06126318 -97.48838186 147.89415385 -97.44604492 139.46191406 C-97.43758542 136.90086014 -97.46628271 134.3420819 -97.49804688 131.78125 C-97.54449905 120.94179766 -96.21492614 111.34694051 -93 101 C-92.62282837 99.76999268 -92.62282837 99.76999268 -92.23803711 98.51513672 C-87.81677269 85.01416872 -81.08799974 72.26769185 -74 60 C-73.34 60 -72.68 60 -72 60 C-71.59974609 58.90558594 -71.59974609 58.90558594 -71.19140625 57.7890625 C-67.47822276 49.09656083 -60.40054674 40.85679752 -54 34 C-53.34 34 -52.68 34 -52 34 C-51.67128906 33.18595703 -51.67128906 33.18595703 -51.3359375 32.35546875 C-49.55529013 29.21590627 -47.1646418 26.83543363 -44.625 24.3125 C-44.14289063 23.81427734 -43.66078125 23.31605469 -43.1640625 22.80273438 C-40.60676008 20.24195736 -38.68953684 18.37594807 -35 18 C-35 17.34 -35 16.68 -35 16 C-32.89980986 14.52690889 -30.82232271 13.18690365 -28.625 11.875 C-28.02171875 11.50246094 -27.4184375 11.12992188 -26.796875 10.74609375 C-22.27034684 8 -22.27034684 8 -20 8 C-20 7.34 -20 6.68 -20 6 C-5.26213592 0 -5.26213592 0 0 0 Z " fill="#050505" transform="translate(182,113)"/>
<path d="M0 0 C1.32152069 0.00031723 1.32152069 0.00031723 2.66973877 0.00064087 C16.64682583 0.03407281 29.95967931 0.94373293 43.5625 4.375 C44.75359375 4.66383057 44.75359375 4.66383057 45.96875 4.95849609 C51.22600109 6.25227273 56.4019735 7.73957192 61.5625 9.375 C62.63274414 9.71120361 62.63274414 9.71120361 63.72460938 10.05419922 C74.53823445 13.50841625 84.60048794 17.94595433 94.5625 23.375 C95.25875488 23.75140625 95.95500977 24.1278125 96.67236328 24.515625 C106.32754165 29.79288031 114.9612819 35.73889859 123.390625 42.80859375 C125.29488237 44.39829852 127.01730296 45.6425712 129.171875 46.91015625 C132.11429246 48.71310813 134.17872506 50.88010172 136.5625 53.375 C137.62330042 54.43010979 138.68727144 55.48203868 139.75390625 56.53125 C140.87763607 57.64580117 142.00133355 58.76038495 143.125 59.875 C143.68896484 60.43058594 144.25292969 60.98617187 144.83398438 61.55859375 C147.96750293 64.67378764 150.97262554 67.77830393 153.5625 71.375 C153.5625 72.035 153.5625 72.695 153.5625 73.375 C154.2225 73.375 154.8825 73.375 155.5625 73.375 C160.97440963 79.19690279 166.02935581 85.77556742 168.5625 93.375 C169.2225 93.375 169.8825 93.375 170.5625 93.375 C183.66599869 116.18479401 193.45828324 138.16859098 199.05126953 164.01806641 C199.50588123 166.11396962 199.98173943 168.2035018 200.46484375 170.29296875 C207.35154672 201.71140968 205.23981152 233.35550253 197.5625 264.375 C197.36253418 265.2004834 197.16256836 266.0259668 196.95654297 266.87646484 C194.42320849 277.19784843 191.02194091 286.7684193 186.49072266 296.37744141 C185.55661414 298.38766652 184.67115677 300.41401438 183.79296875 302.44921875 C176.51599641 319.00671369 166.36804518 335.18444264 154 348.4375 C151.45214771 351.214659 149.08376478 353.92277334 147 357.0625 C144.62959508 360.556163 141.66046252 363.10665767 138.4296875 365.796875 C136.54410963 367.33219891 136.54410963 367.33219891 134.9453125 369.078125 C133.5625 370.375 133.5625 370.375 131.5625 370.375 C131.376875 370.931875 131.19125 371.48875 131 372.0625 C128.92139174 375.40634807 125.95436398 377.42307828 122.5625 379.375 C121.9025 379.375 121.2425 379.375 120.5625 379.375 C120.5625 380.035 120.5625 380.695 120.5625 381.375 C118.49287251 383.05487282 116.43068149 384.60099781 114.25 386.125 C113.61497559 386.57383545 112.97995117 387.0226709 112.32568359 387.48510742 C107.71779049 390.69167863 102.99332273 393.49089229 98.0078125 396.078125 C95.77029595 397.26479512 93.67875248 398.54951254 91.5625 399.9375 C77.373573 408.92000621 59.79745047 414.32219745 43.5625 418.375 C42.77182129 418.57399902 41.98114258 418.77299805 41.16650391 418.97802734 C17.1826147 424.71892692 -11.38722262 425.18831154 -35.4375 419.375 C-36.2217334 419.19275879 -37.0059668 419.01051758 -37.81396484 418.82275391 C-48.2772819 416.35582648 -58.41031495 413.2600717 -68.4375 409.375 C-69.87029297 408.84326172 -69.87029297 408.84326172 -71.33203125 408.30078125 C-80.84835373 404.59058712 -89.60315922 399.4538846 -98.4375 394.375 C-99.07413574 394.00987305 -99.71077148 393.64474609 -100.36669922 393.26855469 C-109.29492187 388.13671875 -109.29492187 388.13671875 -113.4375 385.375 C-113.4375 384.715 -113.4375 384.055 -113.4375 383.375 C-114.15550781 383.12878906 -114.87351562 382.88257813 -115.61328125 382.62890625 C-118.76848465 381.22804831 -120.98041163 379.52739159 -123.625 377.3125 C-124.58148438 376.51199219 -125.53796875 375.71148437 -126.5234375 374.88671875 C-130.14611626 371.76422218 -133.7061497 368.5802215 -137.234375 365.3515625 C-138.92925068 363.83098254 -140.70066292 362.39540426 -142.5 361 C-147.0242669 356.95703809 -150.87859223 352.28629272 -154.4375 347.375 C-154.4375 346.715 -154.4375 346.055 -154.4375 345.375 C-155.365625 345.0346875 -155.365625 345.0346875 -156.3125 344.6875 C-159.05160209 342.99570165 -159.48774472 341.38255839 -160.4375 338.375 C-161.0975 338.375 -161.7575 338.375 -162.4375 338.375 C-164.03808594 336.36230469 -164.03808594 336.36230469 -165.921875 333.546875 C-166.95441406 332.00386719 -166.95441406 332.00386719 -168.0078125 330.4296875 C-168.72710937 329.33914063 -169.44640625 328.24859375 -170.1875 327.125 C-171.24324219 325.55878906 -171.24324219 325.55878906 -172.3203125 323.9609375 C-176.94515622 316.99788283 -180.82989367 309.90721599 -184.4375 302.375 C-185.15139678 300.97860682 -185.87071589 299.58496002 -186.59765625 298.1953125 C-197.90736727 276.34582745 -203.72615186 252.75228129 -206.4375 228.375 C-206.53248779 227.52736084 -206.62747559 226.67972168 -206.7253418 225.80639648 C-209.16239465 202.91542983 -205.90451278 180.59653908 -200.4375 158.375 C-200.13755127 157.13459961 -200.13755127 157.13459961 -199.83154297 155.86914062 C-197.12079462 144.82719323 -193.4307944 134.58704649 -188.4375 124.375 C-188.07527344 123.63137207 -187.71304688 122.88774414 -187.33984375 122.12158203 C-176.45620846 100.0545503 -161.9176834 76.97028665 -143.4375 60.375 C-142.7775 60.375 -142.1175 60.375 -141.4375 60.375 C-141.4375 59.715 -141.4375 59.055 -141.4375 58.375 C-136.84796039 53.63162108 -131.349268 49.61040812 -126.171875 45.53125 C-124.29278986 44.04945715 -122.42888818 42.548269 -120.578125 41.03125 C-104.10258797 27.8173675 -85.0220212 17.78947809 -64.875 11.515625 C-61.41510998 10.43128877 -61.41510998 10.43128877 -58.12890625 8.89453125 C-53.61999691 7.03848286 -49.1153504 5.91337258 -44.375 4.8125 C-43.52228516 4.60431641 -42.66957031 4.39613281 -41.79101562 4.18164062 C-27.85737333 0.89160962 -14.25423041 -0.03162847 0 0 Z M-56.4375 36.375 C-57.46101563 36.77203125 -58.48453125 37.1690625 -59.5390625 37.578125 C-62.51879174 38.8142975 -65.48108839 40.08393059 -68.4375 41.375 C-69.09057129 41.65859375 -69.74364258 41.9421875 -70.41650391 42.234375 C-80.60844837 46.70207668 -89.46680827 51.74544002 -98.4375 58.375 C-99.66967859 59.25049532 -100.90413099 60.12279767 -102.140625 60.9921875 C-103.38556273 61.86958445 -104.63035768 62.74718404 -105.875 63.625 C-106.7261438 64.22513916 -106.7261438 64.22513916 -107.59448242 64.83740234 C-112.85326025 68.58889707 -118.11150454 72.54985122 -122.4375 77.375 C-122.4375 78.035 -122.4375 78.695 -122.4375 79.375 C-122.994375 79.601875 -123.55125 79.82875 -124.125 80.0625 C-127.09909588 81.75050036 -129.15758865 83.84176517 -131.4375 86.375 C-131.4375 87.035 -131.4375 87.695 -131.4375 88.375 C-132.0975 88.375 -132.7575 88.375 -133.4375 88.375 C-134.7815093 90.36784138 -136.11291292 92.36919671 -137.4375 94.375 C-139.10416667 96.04166667 -140.77083333 97.70833333 -142.4375 99.375 C-142.4375 100.035 -142.4375 100.695 -142.4375 101.375 C-143.0975 101.375 -143.7575 101.375 -144.4375 101.375 C-145.88944365 103.25552942 -147.25114605 105.20636849 -148.5625 107.1875 C-149.28695312 108.26644531 -150.01140625 109.34539062 -150.7578125 110.45703125 C-152.68694261 113.2471871 -152.68694261 113.2471871 -152.4375 116.375 C-153.0975 116.375 -153.7575 116.375 -154.4375 116.375 C-155.00017578 117.40947266 -155.00017578 117.40947266 -155.57421875 118.46484375 C-156.34185547 119.87443359 -156.34185547 119.87443359 -157.125 121.3125 C-157.94871094 122.83037109 -157.94871094 122.83037109 -158.7890625 124.37890625 C-159.76269852 126.14852433 -160.75145809 127.91019756 -161.7734375 129.65234375 C-165.45451326 135.94768669 -167.95543097 142.53095168 -170.4375 149.375 C-170.93967883 150.7137013 -171.44229858 152.05223726 -171.9453125 153.390625 C-177.4117631 168.14076481 -181.16682991 182.55468032 -181.4375 198.375 C-181.45264648 199.25526855 -181.46779297 200.13553711 -181.48339844 201.04248047 C-182.18807998 251.92564439 -165.27287044 294.57152547 -131.75585938 332.82714844 C-130.52310155 334.27449743 -129.35995189 335.78033373 -128.203125 337.2890625 C-127.32914063 338.32160156 -127.32914063 338.32160156 -126.4375 339.375 C-125.7775 339.375 -125.1175 339.375 -124.4375 339.375 C-124.4375 340.035 -124.4375 340.695 -124.4375 341.375 C-123.06125656 342.84598687 -123.06125656 342.84598687 -121.1875 344.375 C-120.45789063 344.99375 -119.72828125 345.6125 -118.9765625 346.25 C-118.13867188 346.95125 -117.30078125 347.6525 -116.4375 348.375 C-115.49648437 349.179375 -114.55546875 349.98375 -113.5859375 350.8125 C-108.21248863 355.3667409 -102.79240041 359.73886022 -96.9453125 363.6796875 C-95.26796745 364.81359366 -93.61625995 365.98633844 -91.9921875 367.1953125 C-81.70952209 374.60003074 -70.04785301 379.4364895 -58.4375 384.375 C-57.26646729 384.87507568 -57.26646729 384.87507568 -56.07177734 385.38525391 C-43.64480386 390.56244484 -30.71453878 392.53947616 -17.4375 394.375 C-16.71385254 394.4795752 -15.99020508 394.58415039 -15.24462891 394.69189453 C14.56359345 398.7789184 44.67617683 391.87073877 71.5625 379.375 C72.75488281 378.82328125 73.94726562 378.2715625 75.17578125 377.703125 C84.73922383 373.08885698 93.4783515 367.48810704 101.6875 360.7578125 C103.5625 359.375 103.5625 359.375 106.5625 358.375 C106.5625 357.715 106.5625 357.055 106.5625 356.375 C107.119375 356.148125 107.67625 355.92125 108.25 355.6875 C110.71035375 354.426593 110.71035375 354.426593 112.8125 352.125 C114.9831532 349.9543468 116.82560673 348.45727197 119.3125 346.75 C124.65080629 342.85833397 128.76872235 337.74951834 132.5625 332.375 C132.5625 331.715 132.5625 331.055 132.5625 330.375 C133.2225 330.375 133.8825 330.375 134.5625 330.375 C136.45796259 328.18290789 138.24006069 325.98436994 140 323.6875 C140.73573242 322.74874023 140.73573242 322.74874023 141.48632812 321.79101562 C144.09402402 318.43021997 146.44763272 315.0732203 148.5625 311.375 C149.36730182 310.04875767 150.17343789 308.72332462 150.98046875 307.3984375 C157.56727935 296.41645164 163.0512257 285.35972535 167.5625 273.375 C167.84464355 272.62895508 168.12678711 271.88291016 168.41748047 271.11425781 C174.76194631 254.02868982 178.26363155 236.59831197 178.5625 218.375 C178.58521973 217.07079102 178.58521973 217.07079102 178.60839844 215.74023438 C178.70116257 209.28294544 178.68026089 202.83180448 178.5625 196.375 C178.54364746 195.31104004 178.54364746 195.31104004 178.52441406 194.22558594 C178.08724526 176.39088315 172.8637743 160.2305077 166.47167969 143.73339844 C165.73129213 141.81284424 165.02125251 139.88061229 164.3203125 137.9453125 C157.88512018 120.98834587 146.00350862 103.83242531 133.703125 90.671875 C131.05123803 87.82641964 128.55933102 84.85911839 126.0703125 81.87109375 C124.52422045 80.11572854 124.52422045 80.11572854 121.5625 79.375 C121.5625 78.715 121.5625 78.055 121.5625 77.375 C120.9025 77.375 120.2425 77.375 119.5625 77.375 C119.5625 76.715 119.5625 76.055 119.5625 75.375 C116.0722242 72.16702592 112.29121731 69.30015668 108.5625 66.375 C107.75683594 65.73949219 106.95117188 65.10398438 106.12109375 64.44921875 C102.70901703 61.45272929 102.70901703 61.45272929 98.5625 60.375 C98.5625 59.715 98.5625 59.055 98.5625 58.375 C91.54894553 53.01819068 83.49642177 49.15397611 75.5625 45.375 C73.83193359 44.52421875 73.83193359 44.52421875 72.06640625 43.65625 C68.26994662 41.80687543 64.43087459 40.06820181 60.5625 38.375 C59.35980469 37.84648438 58.15710938 37.31796875 56.91796875 36.7734375 C22.86424729 22.86119269 -22.41349331 22.62574521 -56.4375 36.375 Z " fill="#0A0A0A" transform="translate(251.4375,38.625)"/>
<path d="M0 0 C1.3096875 -0.03351563 2.619375 -0.06703125 3.96875 -0.1015625 C7.5 0.625 7.5 0.625 9.953125 3.296875 C11.55659159 6.74675766 11.93333655 8.74160063 11.75 12.5 C11.71390625 13.46679688 11.6778125 14.43359375 11.640625 15.4296875 C11.57101562 16.51636719 11.57101562 16.51636719 11.5 17.625 C9.85 17.955 8.2 18.285 6.5 18.625 C5.23762269 16.10024538 5.40143596 14.31299534 5.4375 11.5 C5.44652344 10.58992188 5.45554687 9.67984375 5.46484375 8.7421875 C5.47644531 8.04351562 5.48804688 7.34484375 5.5 6.625 C4.18 6.625 2.86 6.625 1.5 6.625 C1.5 10.585 1.5 14.545 1.5 18.625 C0.18 18.295 -1.14 17.965 -2.5 17.625 C-2.83 13.995 -3.16 10.365 -3.5 6.625 C-4.16 6.625 -4.82 6.625 -5.5 6.625 C-5.83 10.255 -6.16 13.885 -6.5 17.625 C-7.82 17.955 -9.14 18.285 -10.5 18.625 C-12.36585954 16.75914046 -11.75966063 13.81263629 -11.8125 11.3125 C-11.84988281 10.16136719 -11.88726562 9.01023437 -11.92578125 7.82421875 C-11.5 4.625 -11.5 4.625 -9.94921875 2.24609375 C-6.55908984 0.00222852 -4.04038864 0.02386056 0 0 Z " fill="#212121" transform="translate(306.5,249.375)"/>
<path d="M0 0 C1.8253125 -0.01546875 1.8253125 -0.01546875 3.6875 -0.03125 C7 0.5 7 0.5 9.421875 2.078125 C11.59843373 5.4183884 11.3962657 7.80082619 11.25 11.75 C11.21390625 13.01328125 11.1778125 14.2765625 11.140625 15.578125 C11.07101563 17.02445312 11.07101563 17.02445312 11 18.5 C9.35 18.17 7.7 17.84 6 17.5 C6 13.87 6 10.24 6 6.5 C5.01 6.5 4.02 6.5 3 6.5 C3 10.13 3 13.76 3 17.5 C1.68 17.83 0.36 18.16 -1 18.5 C-2 17.5 -2 17.5 -2.09765625 14.99609375 C-2.08605469 13.98675781 -2.07445312 12.97742188 -2.0625 11.9375 C-2.05347656 10.92558594 -2.04445312 9.91367187 -2.03515625 8.87109375 C-2.02355469 8.08863281 -2.01195312 7.30617188 -2 6.5 C-3.65 6.5 -5.3 6.5 -7 6.5 C-7 10.13 -7 13.76 -7 17.5 C-8.32 17.83 -9.64 18.16 -11 18.5 C-11.10823773 16.25106046 -11.18569645 14.00062425 -11.25 11.75 C-11.29640625 10.49703125 -11.3428125 9.2440625 -11.390625 7.953125 C-11 4.5 -11 4.5 -9.421875 2.078125 C-6.1597565 -0.0475135 -3.87150798 -0.03280939 0 0 Z " fill="#232323" transform="translate(237,249.5)"/>
<path d="M0 0 C1.65 0 3.3 0 5 0 C5.08115993 3.06303578 5.14057409 6.12390815 5.1875 9.1875 C5.21263672 10.05181641 5.23777344 10.91613281 5.26367188 11.80664062 C5.3197835 16.68835222 5.25490183 20.067322 2 24 C-0.88861709 25.44430855 -2.79647701 25.37688506 -6 25 C-9.03155153 22.95699788 -10.68092107 21.44614806 -11.484375 17.8046875 C-11.73303982 13.61882966 -11.55197747 11.66237296 -8.8125 8.375 C-5.59984509 6.80436871 -4.3276274 6.85909918 -1 8 C-1.3125 9.875 -1.3125 9.875 -2 12 C-2.99 12.66 -3.98 13.32 -5 14 C-5 15.32 -5 16.64 -5 18 C-3.68 18 -2.36 18 -1 18 C-0.505 9.09 -0.505 9.09 0 0 Z " fill="#202020" transform="translate(167,243)"/>
<path d="M0 0 C3.2394724 2.99028221 3.8975966 4.68050696 4.23828125 9.0703125 C4.24887773 12.05851994 4.17375159 15.01726432 4 18 C2.35 17.67 0.7 17.34 -1 17 C-1.33 13.7 -1.66 10.4 -2 7 C-3.65 6.67 -5.3 6.34 -7 6 C-5.73053486 10.82442184 -5.73053486 10.82442184 -2 14 C-2.33 15.32 -2.66 16.64 -3 18 C-8.4 17.52 -8.4 17.52 -10.875 15.375 C-12.452015 12.04574611 -12.38371319 9.64527529 -12 6 C-9.17166794 0.08621478 -6.5169861 -0.78653281 0 0 Z " fill="#202020" transform="translate(218,250)"/>
<path d="M0 0 C7.42857143 -0.28571429 7.42857143 -0.28571429 11 2 C10.51566469 7.44877223 10.51566469 7.44877223 8.1875 9.9375 C6 11 6 11 3.75 10.6875 C3.1725 10.460625 2.595 10.23375 2 10 C2.33 10.66 2.66 11.32 3 12 C5.3140622 12.73075648 7.64828869 13.40138258 10 14 C10 15.32 10 16.64 10 18 C1.89108911 18.46782178 1.89108911 18.46782178 -1.5 16.6875 C-4.59052363 13.21066091 -4.23722019 9.42811028 -4 5 C-3.34 4.01 -2.68 3.02 -2 2 C-1.34 2 -0.68 2 0 2 C0 1.34 0 0.68 0 0 Z " fill="#1D1D1D" transform="translate(325,250)"/>
<path d="M0 0 C3.1190035 2.71913126 3.93764029 4.17373382 4.25 8.3125 C4.1675 9.199375 4.085 10.08625 4 11 C3.01 11.495 3.01 11.495 2 12 C1.9175 10.88625 1.835 9.7725 1.75 8.625 C1.39585944 5.00937227 1.39585944 5.00937227 -0.8125 3.5 C-3.29308943 2.93300813 -4.63623069 3.10339785 -7 4 C-7.33 4.33 -7.66 4.66 -8 5 C-7.71269945 7.33944736 -7.38063221 9.6739143 -7 12 C-5.35 11.67 -3.7 11.34 -2 11 C-1.67 9.68 -1.34 8.36 -1 7 C-2.32 7 -3.64 7 -5 7 C-4.34 8.32 -3.68 9.64 -3 11 C-4.32 10.67 -5.64 10.34 -7 10 C-6.67 8.35 -6.34 6.7 -6 5 C-4.1875 4.3125 -4.1875 4.3125 -2 4 C-0.1875 5.0625 -0.1875 5.0625 1 7 C0.77669287 10.64734979 0.61627165 12.38372835 -2 15 C-5.04360748 15.32378803 -7.12921967 15.51045744 -9.8125 13.9375 C-11.68455497 10.88309452 -12 8.56883409 -12 5 C-8.68477735 0.13076673 -5.78802335 -1.05236788 0 0 Z " fill="#282828" transform="translate(293,233)"/>
<path d="M0 0 C0 1.65 0 3.3 0 5 C-1.32 5.33 -2.64 5.66 -4 6 C-4.10957031 6.61488281 -4.21914063 7.22976563 -4.33203125 7.86328125 C-4.49058594 8.67152344 -4.64914062 9.47976563 -4.8125 10.3125 C-4.96332031 11.11300781 -5.11414063 11.91351563 -5.26953125 12.73828125 C-6.09356838 15.28971173 -6.86443959 16.39832969 -9 18 C-12.1875 18.1875 -12.1875 18.1875 -15 18 C-15 16.35 -15 14.7 -15 13 C-13.35 12.67 -11.7 12.34 -10 12 C-10.020625 10.906875 -10.04125 9.81375 -10.0625 8.6875 C-10 5 -10 5 -9 2 C-5.5647952 -0.29013653 -4.014669 -0.17842973 0 0 Z " fill="#1E1E1E" transform="translate(266,250)"/>
<path d="M0 0 C0.99 0 1.98 0 3 0 C3 1.32 3 2.64 3 4 C5.97 4 8.94 4 12 4 C12.33 5.32 12.66 6.64 13 8 C12 9 12 9 9.93359375 9.09765625 C9.10988281 9.08605469 8.28617187 9.07445312 7.4375 9.0625 C6.61121094 9.05347656 5.78492188 9.04445312 4.93359375 9.03515625 C4.29550781 9.02355469 3.65742188 9.01195312 3 9 C3.33 10.98 3.66 12.96 4 15 C4.99 15.33 5.98 15.66 7 16 C7.33 14.35 7.66 12.7 8 11 C9.32 11 10.64 11 12 11 C12.48461538 17.3 12.48461538 17.3 10.3125 20.4375 C8 22 8 22 5.5 22.5 C2.08231252 21.8164625 1.08847713 20.79048624 -1 18 C-1.2906124 15.10550051 -1.38186045 12.62050065 -1.25 9.75 C-1.23195313 9.00492188 -1.21390625 8.25984375 -1.1953125 7.4921875 C-1.14835649 5.66090299 -1.07661652 3.83028351 -1 2 C-0.67 2 -0.34 2 0 2 C0.04898437 2.89203125 0.09796875 3.7840625 0.1484375 4.703125 C0.22320312 5.87359375 0.29796875 7.0440625 0.375 8.25 C0.44460938 9.41015625 0.51421875 10.5703125 0.5859375 11.765625 C0.96248308 14.70694334 1.4774123 16.49949011 3 19 C5.31 19 7.62 19 10 19 C10.33 17.02 10.66 15.04 11 13 C10.34 13 9.68 13 9 13 C8.67 14.65 8.34 16.3 8 18 C6.35 18 4.7 18 3 18 C1.39274365 14.78548731 1.94251815 11.56387464 2 8 C4.97 8 7.94 8 11 8 C11 7.34 11 6.68 11 6 C8.36 6 5.72 6 3 6 C2.87625 5.195625 2.7525 4.39125 2.625 3.5625 C2.315625 2.2940625 2.315625 2.2940625 2 1 C1.34 0.67 0.68 0.34 0 0 Z " fill="#212121" transform="translate(270,246)"/>
<path d="M0 0 C2.375 1.5 2.375 1.5 4 3 C3.46104623 6.7726764 2.00464642 8.68212991 -1 11 C-3.25 10.75 -3.25 10.75 -5 10 C-4.67 9.01 -4.34 8.02 -4 7 C-3.67 7.66 -3.34 8.32 -3 9 C-1.68 8.01 -0.36 7.02 1 6 C0.67 5.01 0.34 4.02 0 3 C-2.91634129 2.7497843 -2.91634129 2.7497843 -6 3 C-8.31332486 6.46998729 -8.33957563 7.92509248 -8 12 C-6.36221601 15.2117961 -6.36221601 15.2117961 -3.6171875 15.51171875 C-2.71226562 15.56972656 -1.80734375 15.62773437 -0.875 15.6875 C0.49011719 15.78611328 0.49011719 15.78611328 1.8828125 15.88671875 C2.93082031 15.94279297 2.93082031 15.94279297 4 16 C4 15.34 4 14.68 4 14 C1.36 14 -1.28 14 -4 14 C-4 13.67 -4 13.34 -4 13 C-1.03 13 1.94 13 5 13 C5 14.65 5 16.3 5 18 C3.2507786 18.08142927 1.50045458 18.13938541 -0.25 18.1875 C-1.22453125 18.22230469 -2.1990625 18.25710938 -3.203125 18.29296875 C-6.45791622 17.95203392 -7.74806094 17.35595472 -10 15 C-10.64453125 12.84375 -10.64453125 12.84375 -10.8125 10.5 C-10.88082031 9.7265625 -10.94914063 8.953125 -11.01953125 8.15625 C-11 6 -11 6 -10 3 C-9.34 3 -8.68 3 -8 3 C-8 2.34 -8 1.68 -8 1 C-5.19084526 -0.40457737 -3.11189466 -0.24895157 0 0 Z " fill="#1F1F1F" transform="translate(198,250)"/>
<path d="M0 0 C1.85625 -0.01160156 1.85625 -0.01160156 3.75 -0.0234375 C7 0.375 7 0.375 8.92578125 1.54296875 C10.43988169 4.12519823 10.29227809 6.09378732 10.1875 9.0625 C10.16042969 10.05636719 10.13335937 11.05023438 10.10546875 12.07421875 C10.07066406 12.83347656 10.03585937 13.59273438 10 14.375 C9.34 14.375 8.68 14.375 8 14.375 C7.67 10.745 7.34 7.115 7 3.375 C5.35 3.375 3.7 3.375 2 3.375 C1.67 7.005 1.34 10.635 1 14.375 C0.34 14.375 -0.32 14.375 -1 14.375 C-1.33 10.745 -1.66 7.115 -2 3.375 C-3.65 3.705 -5.3 4.035 -7 4.375 C-7.33 7.675 -7.66 10.975 -8 14.375 C-8.66 14.375 -9.32 14.375 -10 14.375 C-10.08114106 12.60492286 -10.13925505 10.83377902 -10.1875 9.0625 C-10.22230469 8.07636719 -10.25710938 7.09023438 -10.29296875 6.07421875 C-10 3.375 -10 3.375 -8.92578125 1.54296875 C-5.97717732 -0.24533262 -3.41214841 -0.02132593 0 0 Z " fill="#040404" transform="translate(306,251.625)"/>
<path d="M0 0 C1.65 0.33 3.3 0.66 5 1 C5 2.32 5 3.64 5 5 C4.01 5.33 3.02 5.66 2 6 C1.67 9.63 1.34 13.26 1 17 C-0.32 17.33 -1.64 17.66 -3 18 C-4.70792999 16.29207001 -4.25270346 14.14456519 -4.3125 11.8125 C-4.29184716 6.52537369 -3.42854831 3.96425899 0 0 Z " fill="#171717" transform="translate(179,250)"/>
<path d="M0 0 C1.2375 -0.01933594 2.475 -0.03867188 3.75 -0.05859375 C7 0.4375 7 0.4375 8.92578125 2.10546875 C10.24995358 4.9801265 10.30011006 7.03441826 10.1875 10.1875 C10.16042969 11.17234375 10.13335937 12.1571875 10.10546875 13.171875 C10.07066406 13.91953125 10.03585938 14.6671875 10 15.4375 C9.34 15.4375 8.68 15.4375 8 15.4375 C8 11.4775 8 7.5175 8 3.4375 C5.69 3.1075 3.38 2.7775 1 2.4375 C1 6.3975 1 10.3575 1 14.4375 C0.67 14.4375 0.34 14.4375 0 14.4375 C-0.33 11.1375 -0.66 7.8375 -1 4.4375 C-2.65614657 4.05531233 -4.32457024 3.72354898 -6 3.4375 C-7.66342837 5.10092837 -7.36048097 7.2200709 -7.5625 9.5 C-7.68818359 10.87865234 -7.68818359 10.87865234 -7.81640625 12.28515625 C-7.87699219 12.99542969 -7.93757812 13.70570313 -8 14.4375 C-8.66 14.4375 -9.32 14.4375 -10 14.4375 C-10.08114106 12.66742286 -10.13925505 10.89627902 -10.1875 9.125 C-10.22230469 8.13886719 -10.25710937 7.15273438 -10.29296875 6.13671875 C-10 3.4375 -10 3.4375 -8.92578125 1.609375 C-5.97938291 -0.18356517 -3.41420969 0.00355647 0 0 Z " fill="#050505" transform="translate(237,251.5625)"/>
<path d="M0 0 C0.928125 0.0825 1.85625 0.165 2.8125 0.25 C3.4725 1.57 4.1325 2.89 4.8125 4.25 C3.4375 5.75 3.4375 5.75 1.8125 7.25 C1.1525 7.25 0.4925 7.25 -0.1875 7.25 C-0.1875 6.26 -0.1875 5.27 -0.1875 4.25 C-1.1775 4.745 -1.1775 4.745 -2.1875 5.25 C-1.8575 7.56 -1.5275 9.87 -1.1875 12.25 C1.4525 12.25 4.0925 12.25 6.8125 12.25 C6.8125 12.91 6.8125 13.57 6.8125 14.25 C5.2098218 14.35824843 3.60504252 14.43570645 2 14.5 C1.10667969 14.54640625 0.21335938 14.5928125 -0.70703125 14.640625 C-3.1875 14.25 -3.1875 14.25 -4.98828125 12.421875 C-6.61091277 9.48316776 -6.60138448 7.56107588 -6.1875 4.25 C-4.54235479 0.77691566 -3.88782193 0.30492721 0 0 Z " fill="#070707" transform="translate(195.1875,251.75)"/>
<path d="M0 0 C0.66 0 1.32 0 2 0 C2.08103404 2.91722548 2.14051081 5.83219516 2.1875 8.75 C2.21263672 9.575 2.23777344 10.4 2.26367188 11.25 C2.33730021 17.33660895 2.33730021 17.33660895 0.70703125 20.54296875 C-1 22 -1 22 -4.5 22.5625 C-8 22 -8 22 -9.9375 19.8125 C-11.05488587 16.85471389 -11.47968812 15.11797281 -11 12 C-9.75 9.6875 -9.75 9.6875 -8 8 C-6.68 8 -5.36 8 -4 8 C-4 8.66 -4 9.32 -4 10 C-5.98 10.99 -5.98 10.99 -8 12 C-7.67 14.31 -7.34 16.62 -7 19 C-5.33388095 19.042721 -3.66617115 19.04063832 -2 19 C-0.48578999 17.48578999 -0.78690144 16.07527232 -0.68359375 13.96484375 C-0.64169922 13.15595703 -0.59980469 12.34707031 -0.55664062 11.51367188 C-0.49766602 10.2384668 -0.49766602 10.2384668 -0.4375 8.9375 C-0.39431641 8.08349609 -0.35113281 7.22949219 -0.30664062 6.34960938 C-0.20023298 4.23327963 -0.09958269 2.11666187 0 0 Z " fill="#070707" transform="translate(168,244)"/>
<path d="M0 0 C1.32 0 2.64 0 4 0 C4 5.61 4 11.22 4 17 C2.68 17.33 1.36 17.66 0 18 C-1.82116003 16.17883997 -1.1323508 13.69328236 -1.13671875 11.2734375 C-1.13285156 10.52320313 -1.12898438 9.77296875 -1.125 9 C-1.12886719 8.24976563 -1.13273437 7.49953125 -1.13671875 6.7265625 C-1.12661053 1.12661053 -1.12661053 1.12661053 0 0 Z " fill="#1A1A1A" transform="translate(287,250)"/>
<path d="M0 0 C0.33 1.65 0.66 3.3 1 5 C-1.475 6.485 -1.475 6.485 -4 8 C-3.34 6.02 -2.68 4.04 -2 2 C-4.50965614 2.70339566 -4.50965614 2.70339566 -7 4 C-8.07642709 5.88850355 -8.07642709 5.88850355 -8 8 C-6.29107501 11.31460705 -6.29107501 11.31460705 -2.875 11.6875 C-1.92625 11.790625 -0.9775 11.89375 0 12 C0 12.66 0 13.32 0 14 C-3.25 14.3125 -3.25 14.3125 -7 14 C-9.5 11.875 -9.5 11.875 -11 9 C-10.936318 5.81590023 -10.51040601 3.85067668 -8.875 1.125 C-5.98014 -0.611916 -3.29140103 -0.18630572 0 0 Z " fill="#070707" transform="translate(333,252)"/>
<path d="M0 0 C3 0.5625 3 0.5625 5.375 2.5 C7.55752445 6.61321916 7.35766296 10.00229722 7 14.5625 C6.34 14.5625 5.68 14.5625 5 14.5625 C4.86722656 13.85222656 4.73445312 13.14195312 4.59765625 12.41015625 C4.42105469 11.49105469 4.24445313 10.57195312 4.0625 9.625 C3.88847656 8.70847656 3.71445313 7.79195313 3.53515625 6.84765625 C3.22285012 4.60960156 3.22285012 4.60960156 2 3.5625 C0.33382885 3.52186168 -1.33388095 3.519779 -3 3.5625 C-3.86382428 6.31956416 -3.86382428 6.31956416 -4 9.5625 C-2.18911155 12.43215747 -2.18911155 12.43215747 0 14.5625 C-2.66753731 14.19456382 -3.81998328 13.74251672 -5.75 11.8125 C-7.27759747 9.06282456 -7.54240316 7.66194665 -7 4.5625 C-4.86907223 1.53002586 -3.65930734 0.68612013 0 0 Z " fill="#060606" transform="translate(214,251.4375)"/>
<path d="M0 0 C2.9375 0.8125 2.9375 0.8125 4.9375 2.8125 C5.50270003 5.46787372 5.67538198 8.10394713 5.9375 10.8125 C4.9475 10.8125 3.9575 10.8125 2.9375 10.8125 C2.97875 9.86375 3.02 8.915 3.0625 7.9375 C3.28723818 4.71005144 3.28723818 4.71005144 0.9375 2.8125 C-1.17070797 3.1310177 -1.17070797 3.1310177 -3.0625 3.8125 C-3.0625 5.1325 -3.0625 6.4525 -3.0625 7.8125 C-2.7325 7.8125 -2.4025 7.8125 -2.0625 7.8125 C-2.0625 6.8225 -2.0625 5.8325 -2.0625 4.8125 C-0.7425 4.8125 0.5775 4.8125 1.9375 4.8125 C1.6075 6.4625 1.2775 8.1125 0.9375 9.8125 C-0.7125 10.1425 -2.3625 10.4725 -4.0625 10.8125 C-6.21752531 7.57996204 -6.53106135 6.56099077 -6.0625 2.8125 C-4.28235296 -0.15441173 -3.48497618 -0.21336589 0 0 Z " fill="#0D0D0D" transform="translate(290.0625,235.1875)"/>
<path d="M0 0 C1.31484375 -0.00193359 1.31484375 -0.00193359 2.65625 -0.00390625 C3.57921875 -0.00003906 4.5021875 0.00382813 5.453125 0.0078125 C6.360625 0.00394531 7.268125 0.00007812 8.203125 -0.00390625 C9.52570313 -0.00197266 9.52570313 -0.00197266 10.875 0 C12.0830127 0.00169189 12.0830127 0.00169189 13.31542969 0.00341797 C15.85659618 0.14112945 18.22235886 0.57791878 20.703125 1.1328125 C20.703125 1.4628125 20.703125 1.7928125 20.703125 2.1328125 C20.01162354 2.15786865 19.32012207 2.1829248 18.60766602 2.20874023 C15.49344634 2.32433411 12.37955711 2.44722492 9.265625 2.5703125 C7.63270508 2.62928711 7.63270508 2.62928711 5.96679688 2.68945312 C4.41508789 2.75229492 4.41508789 2.75229492 2.83203125 2.81640625 C1.87369385 2.85306396 0.91535645 2.88972168 -0.07202148 2.92749023 C-2.26826425 2.89115674 -2.26826425 2.89115674 -3.296875 4.1328125 C-3.52762582 5.48028334 -3.70840563 6.83658815 -3.859375 8.1953125 C-4.00375 9.4946875 -4.148125 10.7940625 -4.296875 12.1328125 C-4.626875 12.1328125 -4.956875 12.1328125 -5.296875 12.1328125 C-5.32374779 10.32039198 -5.34321215 8.50786017 -5.359375 6.6953125 C-5.37097656 5.68597656 -5.38257813 4.67664063 -5.39453125 3.63671875 C-5.23211729 -0.52757526 -3.7280173 0.00525073 0 0 Z " fill="#5F5D5D" transform="translate(232.296875,150.8671875)"/>
<path d="M0 0 C4.875 0.875 4.875 0.875 6 2 C6.33 1.34 6.66 0.68 7 0 C7.66 0.33 8.32 0.66 9 1 C9 4.96 9 8.92 9 13 C7.68 13.33 6.36 13.66 5 14 C4 13 4 13 3.90234375 10.49609375 C3.91394531 9.48675781 3.92554688 8.47742188 3.9375 7.4375 C3.94652344 6.42558594 3.95554688 5.41367187 3.96484375 4.37109375 C3.97644531 3.58863281 3.98804688 2.80617188 4 2 C2.35 2 0.7 2 -1 2 C-0.67 1.34 -0.34 0.68 0 0 Z " fill="#1B1B1B" transform="translate(231,254)"/>
<path d="M0 0 C1.98 0 3.96 0 6 0 C6.625 2.375 6.625 2.375 7 5 C6.34 5.66 5.68 6.32 5 7 C2.375 6.625 2.375 6.625 0 6 C0 4.02 0 2.04 0 0 Z " fill="#131313" transform="translate(338,262)"/>
<path d="M0 0 C1.32 0 2.64 0 4 0 C3.67 1.65 3.34 3.3 3 5 C3.66 4.67 4.32 4.34 5 4 C4.67 4.99 4.34 5.98 4 7 C2.68 6.67 1.36 6.34 0 6 C0.33 6.66 0.66 7.32 1 8 C3.52733235 8.65555119 3.52733235 8.65555119 6 9 C6 9.33 6 9.66 6 10 C3.1875 10.3125 3.1875 10.3125 0 10 C-1.875 7.5 -1.875 7.5 -3 5 C-1.75 2.5 -1.75 2.5 0 0 Z " fill="#232323" transform="translate(327,254)"/>
<path d="M0 0 C1 3 1 3 1 5 C0.01 5.78375 -0.98 6.5675 -2 7.375 C-2.99 8.24125 -3.98 9.1075 -5 10 C-5 11.32 -5 12.64 -5 14 C-8.21428571 17 -8.21428571 17 -11 17 C-9.52869627 12.6426774 -7.16919385 9.28065866 -4.375 5.6875 C-3.95476562 5.13771484 -3.53453125 4.58792969 -3.1015625 4.02148438 C-2.07279961 2.67707832 -1.0370991 1.33798587 0 0 Z " fill="#504F4F" transform="translate(91,118)"/>
<path d="M0 0 C0.33 0 0.66 0 1 0 C1 6.93 1 13.86 1 21 C0.34 21.33 -0.32 21.66 -1 22 C-4 16.25 -4 16.25 -4 14 C-2.68 14.33 -1.36 14.66 0 15 C0 10.05 0 5.1 0 0 Z " fill="#595657" transform="translate(93,267)"/>
<path d="M0 0 C1.98 0 3.96 0 6 0 C6 0.66 6 1.32 6 2 C4.02 2.33 2.04 2.66 0 3 C0.02320313 3.62648437 0.04640625 4.25296875 0.0703125 4.8984375 C0.08835937 5.71570313 0.10640625 6.53296875 0.125 7.375 C0.14820313 8.18710937 0.17140625 8.99921875 0.1953125 9.8359375 C0 12 0 12 -2 14 C-4.625 14.125 -4.625 14.125 -7 14 C-7 13.34 -7 12.68 -7 12 C-6.21625 11.87625 -5.4325 11.7525 -4.625 11.625 C-1.80898488 10.2707816 -1.80898488 10.2707816 -1.22265625 7.640625 C-0.73064551 5.09797096 -0.31769004 2.56997021 0 0 Z " fill="#060606" transform="translate(259,252)"/>
<path d="M0 0 C1.4540625 0.0309375 1.4540625 0.0309375 2.9375 0.0625 C3.5975 1.3825 4.2575 2.7025 4.9375 4.0625 C3.5625 5.5625 3.5625 5.5625 1.9375 7.0625 C1.2775 7.0625 0.6175 7.0625 -0.0625 7.0625 C0.5975 5.4125 1.2575 3.7625 1.9375 2.0625 C-0.0425 2.7225 -2.0225 3.3825 -4.0625 4.0625 C-4.0625 0.08290816 -4.0625 0.08290816 0 0 Z " fill="#060606" transform="translate(195.0625,251.9375)"/>
<path d="M0 0 C0.33 0 0.66 0 1 0 C1 1.98 1 3.96 1 6 C2.32 6 3.64 6 5 6 C4.34 7.98 3.68 9.96 3 12 C2.01 12 1.02 12 0 12 C0 8.04 0 4.08 0 0 Z " fill="#4A454A" transform="translate(406,275)"/>
<path d="M0 0 C0.66 0.33 1.32 0.66 2 1 C0.92492371 2.29854721 -0.16043736 3.58858361 -1.25 4.875 C-1.85328125 5.59429687 -2.4565625 6.31359375 -3.078125 7.0546875 C-4.97087634 8.97052118 -6.53657727 9.96449045 -9 11 C-6.62245212 6.50907623 -3.6393937 3.47764287 0 0 Z " fill="#656565" transform="translate(108,99)"/>
<path d="M0 0 C0 3 0 3 -1.3125 4.60546875 C-1.869375 5.12753906 -2.42625 5.64960938 -3 6.1875 C-3.556875 6.71730469 -4.11375 7.24710937 -4.6875 7.79296875 C-5.120625 8.19128906 -5.55375 8.58960938 -6 9 C-6.99 8.67 -7.98 8.34 -9 8 C-7.625 6.5 -7.625 6.5 -6 5 C-5.34 5 -4.68 5 -4 5 C-3.566875 4.0409375 -3.566875 4.0409375 -3.125 3.0625 C-2 1 -2 1 0 0 Z " fill="#636363" transform="translate(370,385)"/>
<path d="M0 0 C1.32 0 2.64 0 4 0 C3.67 0.99 3.34 1.98 3 3 C2.01 3 1.02 3 0 3 C0.33 4.98 0.66 6.96 1 9 C0.01 8.67 -0.98 8.34 -2 8 C-2.125 5.125 -2.125 5.125 -2 2 C-1.34 1.34 -0.68 0.68 0 0 Z " fill="#242424" transform="translate(193,254)"/>
<path d="M0 0 C0.33 0.99 0.66 1.98 1 3 C-0.98 4.98 -2.96 6.96 -5 9 C-5.66 8.67 -6.32 8.34 -7 8 C-5.71937515 6.2925002 -4.38232443 4.62626404 -3 3 C-2.34 3 -1.68 3 -1 3 C-0.67 2.01 -0.34 1.02 0 0 Z " fill="#525252" transform="translate(131,144)"/>
<path d="M0 0 C0.99 0.33 1.98 0.66 3 1 C3 1.66 3 2.32 3 3 C-0.46153846 6 -0.46153846 6 -3 6 C-1.125 1.125 -1.125 1.125 0 0 Z " fill="#413E3F" transform="translate(83,129)"/>
<path d="M0 0 C0.99 0.33 1.98 0.66 3 1 C2.67 4.63 2.34 8.26 2 12 C1.67 12 1.34 12 1 12 C1 8.7 1 5.4 1 2 C0.01 1.67 -0.98 1.34 -2 1 C-1.34 0.67 -0.68 0.34 0 0 Z " fill="#151515" transform="translate(311,254)"/>
</svg>
